<svg width="88" height="89" viewBox="0 0 88 89" fill="none" xmlns="http://www.w3.org/2000/svg">
<g filter="url(#filter0_d_0_123)">
<rect x="6" y="49.1578" width="41.2203" height="26.2177" fill="#C7A17A"/>
<path d="M47.2204 57.0231H82V28.1837H43.356V36.049H47.2204V57.0231Z" fill="#C7A17A"/>
<path fill-rule="evenodd" clip-rule="evenodd" d="M84 9.13852V3.95616C84 1.81326 82.2632 0.069397 80.129 0.069397H44C41.8658 0.069397 40.129 1.81326 40.129 3.95616V9.13852C40.129 10.2825 40.6335 11.3022 41.4194 12.0147V33.7547H7.87097C5.73677 33.7547 4 35.4986 4 37.6415V73.918C4 77.4899 6.89419 80.3959 10.4516 80.3959H41.4194C41.8606 80.3959 42.2929 80.3506 42.7097 80.2651V80.3959H80.129C82.2632 80.3959 84 78.6521 84 76.5092V71.3268C84 70.1828 83.4955 69.1632 82.7097 68.4506V12.0147C83.4955 11.3022 84 10.2825 84 9.13852ZM81.4194 3.95616V9.13852C81.4194 9.85239 80.84 10.4341 80.129 10.4341H74.9677V2.66058H80.129C80.84 2.66058 81.4194 3.2423 81.4194 3.95616ZM51.7419 2.66058V10.4341H56.9032V2.66058H51.7419ZM59.4839 2.66058H64.6452V10.4341H59.4839V2.66058ZM72.3871 2.66058H67.2258V10.4341H72.3871V2.66058ZM42.7097 3.95616C42.7097 3.2423 43.289 2.66058 44 2.66058H49.1613V10.4341H44C43.289 10.4341 42.7097 9.85239 42.7097 9.13852V3.95616ZM6.58065 73.918C6.58065 76.0609 8.31742 77.8047 10.4516 77.8047H41.4194C43.5536 77.8047 45.2903 76.0609 45.2903 73.918V44.1194H42.7097V41.5283H45.2903V37.6415C45.2903 36.9276 44.711 36.3459 44 36.3459H7.87097C7.16 36.3459 6.58065 36.9276 6.58065 37.6415V41.5283H40.129V44.1194H6.58065V73.918ZM81.4194 76.5092C81.4194 77.2243 80.84 77.8047 80.129 77.8047H46.5471C47.3665 76.719 47.871 75.382 47.871 73.918V70.0312H80.129C80.84 70.0312 81.4194 70.6116 81.4194 71.3268V76.5092ZM47.871 67.44H80.129V13.0253H44V33.7547C46.1342 33.7547 47.871 35.4986 47.871 37.6415V67.44Z" fill="#151D28"/>
<path fill-rule="evenodd" clip-rule="evenodd" d="M59.52 51.8761C62.5006 51.8761 65.7871 50.5041 68.3961 47.8857C72.8839 43.3796 73.6942 36.8628 70.2026 33.357C66.7109 29.8511 60.2206 30.6647 55.7342 35.1708C51.2477 39.6768 50.4374 46.1937 53.9277 49.6982C55.3884 51.1661 57.3742 51.8761 59.52 51.8761ZM66.5716 46.0537C63.529 49.1074 59.4361 50.1154 56.7948 48.6514L69.16 36.2358C70.6155 38.8891 69.6142 42.9974 66.5716 46.0537ZM64.5935 33.7417C62.3006 33.7417 59.6761 34.8754 57.5574 37.0027C54.5148 40.059 53.5135 44.1673 54.969 46.8194L67.3187 34.4193C66.5174 33.9762 65.5922 33.7417 64.5935 33.7417Z" fill="#151D28"/>
<path fill-rule="evenodd" clip-rule="evenodd" d="M19.6039 54.6046C15.1161 59.1107 14.3058 65.6275 17.7974 69.1333C19.2581 70.6012 21.2439 71.3112 23.3897 71.3112C26.3703 71.3112 29.6568 69.9392 32.2658 67.3208C36.7536 62.8148 37.5639 56.2979 34.0723 52.7921C30.582 49.2836 24.0916 50.0985 19.6039 54.6046ZM21.4284 56.4366C23.5471 54.3105 26.1729 53.1769 28.4645 53.1769C29.4632 53.1769 30.3884 53.4114 31.1897 53.8545L18.84 66.2545C17.3845 63.6012 18.3858 59.4929 21.4284 56.4366ZM20.6658 68.0852C23.3071 69.5492 27.4 68.5413 30.4426 65.4876C33.4852 62.4313 34.4865 58.3229 33.031 55.6696L20.6658 68.0852Z" fill="#151D28"/>
</g>
<defs>
<filter id="filter0_d_0_123" x="0" y="0.069397" width="88" height="88.3265" filterUnits="userSpaceOnUse" color-interpolation-filters="sRGB">
<feFlood flood-opacity="0" result="BackgroundImageFix"/>
<feColorMatrix in="SourceAlpha" type="matrix" values="0 0 0 0 0 0 0 0 0 0 0 0 0 0 0 0 0 0 127 0" result="hardAlpha"/>
<feOffset dy="4"/>
<feGaussianBlur stdDeviation="2"/>
<feComposite in2="hardAlpha" operator="out"/>
<feColorMatrix type="matrix" values="0 0 0 0 0 0 0 0 0 0 0 0 0 0 0 0 0 0 0.25 0"/>
<feBlend mode="normal" in2="BackgroundImageFix" result="effect1_dropShadow_0_123"/>
<feBlend mode="normal" in="SourceGraphic" in2="effect1_dropShadow_0_123" result="shape"/>
</filter>
</defs>
</svg>
